<?xml version="1.0" encoding="UTF-8"?>
<svg width="16px" height="15px" viewBox="0 0 16 15" version="1.1" xmlns="http://www.w3.org/2000/svg" xmlns:xlink="http://www.w3.org/1999/xlink">
    <title>cubes-svgrepo-com</title>
    <g id="Page-1" stroke="none" stroke-width="1" fill="none" fill-rule="evenodd">
        <g id="Desktop" transform="translate(-283.000000, -249.000000)" fill="#444444" fill-rule="nonzero">
            <g id="cubes-svgrepo-com" transform="translate(283.000000, 249.000000)">
                <path d="M12,6 L12,2 L8,0 L4,2 L4,6 L0,8 L0,13 L4,15 L8,13 L12,15 L16,13 L16,8 L12,6 Z M8.09,1.12 L11,2.56 L8.4,3.86 L5.49,2.42 L8.09,1.12 Z M5,2.78 L8,4.28 L8,7.88 L5,6.38 L5,2.78 Z M4,13.88 L1,12.38 L1,8.78 L4,10.28 L4,13.88 Z M4.28,9.88 L1.4,8.42 L4,7.12 L6.88,8.56 L4.28,9.88 Z M12,13.88 L9,12.38 L9,8.78 L12,10.28 L12,13.88 Z M12.28,9.88 L9.4,8.42 L12,7.12 L14.88,8.56 L12.28,9.88 Z" id="Shape"></path>
            </g>
        </g>
    </g>
</svg>