<?xml version="1.0" encoding="UTF-8"?>
<svg width="82px" height="31px" viewBox="0 0 82 31" version="1.1" xmlns="http://www.w3.org/2000/svg" xmlns:xlink="http://www.w3.org/1999/xlink">
    <title>workflow-logo-indigo-500-mark-white-text</title>
    <g id="Page-1" stroke="none" stroke-width="1" fill="none" fill-rule="evenodd">
        <g id="Desktop" transform="translate(-264.000000, -278.000000)" fill="#FFFFFF" fill-rule="nonzero">
            <g id="Group" transform="translate(264.000000, 278.000000)">
                <text id="skia" font-family="Gibson-Regular, Gibson" font-size="24" font-weight="normal">
                    <tspan x="36.8219178" y="22">skia</tspan>
                </text>
                <g id="cubes-svgrepo-com" transform="translate(0.000000, 0.945205)">
                    <path d="M23.6712329,11.8356164 L23.6712329,3.94520548 L15.7808219,0 L7.89041096,3.94520548 L7.89041096,11.8356164 L0,15.7808219 L0,25.6438356 L7.89041096,29.5890411 L15.7808219,25.6438356 L23.6712329,29.5890411 L31.5616438,25.6438356 L31.5616438,15.7808219 L23.6712329,11.8356164 Z M15.4579673,1.47945205 L21.5193026,4.58954105 L16.1036765,7.39726027 L10.0423412,4.28717128 L15.4579673,1.47945205 Z M10.0423412,5.91780822 L15.7808219,8.96373892 L15.7808219,16.2739726 L10.0423412,13.2280419 L10.0423412,5.91780822 Z M7.17310087,28.109589 L1.43462017,25.0636583 L1.43462017,17.7534247 L7.17310087,20.7993554 L7.17310087,28.109589 Z M8.90092809,19.2328767 L2.86924035,16.1024419 L8.314514,13.3150685 L14.3462017,16.4026206 L8.90092809,19.2328767 Z M22.9539228,28.109589 L17.2154421,25.0636583 L17.2154421,17.7534247 L22.9539228,20.7993554 L22.9539228,28.109589 Z M24.68175,19.2328767 L18.6500623,16.1024419 L24.0953359,13.3150685 L30.1270237,16.4026206 L24.68175,19.2328767 Z" id="Shape"></path>
                </g>
            </g>
        </g>
    </g>
</svg>